<svg xmlns="http://www.w3.org/2000/svg" width="48" height="48" viewBox="0 0 48 48" fill="none">
  <defs>
    <linearGradient id="standGrad" x1="24" y1="0" x2="24" y2="48" gradientUnits="userSpaceOnUse">
      <stop offset="0" stop-color="#B85A3A"/>
      <stop offset="1" stop-color="#8B3A1E"/>
    </linearGradient>
  </defs>

  <!-- Acrylic stand body (rounded rectangle with slight perspective) -->
  <rect x="8" y="2" width="32" height="36" rx="4" ry="4" fill="url(#standGrad)" opacity="0.9"/>

  <!-- Gloss / acrylic shine highlight -->
  <rect x="10" y="4" width="12" height="32" rx="3" ry="3" fill="white" opacity="0.10"/>

  <!-- Inner panel (screen / card area) -->
  <rect x="13" y="7" width="22" height="26" rx="2.5" ry="2.5" fill="#FFF5F0"/>

  <!-- QR Code pattern — top-left finder -->
  <rect x="16" y="10" width="6" height="6" rx="0.8" fill="#8B3A1E"/>
  <rect x="17.2" y="11.2" width="3.6" height="3.6" rx="0.4" fill="#FFF5F0"/>
  <rect x="18.2" y="12.2" width="1.6" height="1.6" rx="0.2" fill="#8B3A1E"/>

  <!-- QR Code pattern — top-right finder -->
  <rect x="26" y="10" width="6" height="6" rx="0.8" fill="#8B3A1E"/>
  <rect x="27.2" y="11.2" width="3.6" height="3.6" rx="0.4" fill="#FFF5F0"/>
  <rect x="28.2" y="12.2" width="1.6" height="1.6" rx="0.2" fill="#8B3A1E"/>

  <!-- QR Code pattern — bottom-left finder -->
  <rect x="16" y="22" width="6" height="6" rx="0.8" fill="#8B3A1E"/>
  <rect x="17.2" y="23.2" width="3.6" height="3.6" rx="0.4" fill="#FFF5F0"/>
  <rect x="18.2" y="24.2" width="1.6" height="1.6" rx="0.2" fill="#8B3A1E"/>

  <!-- QR Code data modules (scattered small squares) -->
  <rect x="24" y="18" width="1.8" height="1.8" rx="0.2" fill="#8B3A1E" opacity="0.8"/>
  <rect x="26.5" y="18" width="1.8" height="1.8" rx="0.2" fill="#B85A3A" opacity="0.7"/>
  <rect x="29" y="18" width="1.8" height="1.8" rx="0.2" fill="#8B3A1E" opacity="0.6"/>
  <rect x="24" y="20.5" width="1.8" height="1.8" rx="0.2" fill="#B85A3A" opacity="0.7"/>
  <rect x="26.5" y="20.5" width="1.8" height="1.8" rx="0.2" fill="#8B3A1E" opacity="0.8"/>
  <rect x="29" y="20.5" width="1.8" height="1.8" rx="0.2" fill="#B85A3A" opacity="0.5"/>
  <rect x="16" y="18" width="1.8" height="1.8" rx="0.2" fill="#B85A3A" opacity="0.6"/>
  <rect x="18.5" y="18" width="1.8" height="1.8" rx="0.2" fill="#8B3A1E" opacity="0.7"/>
  <rect x="21" y="18" width="1.8" height="1.8" rx="0.2" fill="#B85A3A" opacity="0.8"/>
  <rect x="21" y="10" width="1.8" height="1.8" rx="0.2" fill="#8B3A1E" opacity="0.5"/>
  <rect x="23.5" y="10" width="1.8" height="1.8" rx="0.2" fill="#B85A3A" opacity="0.6"/>
  <rect x="21" y="12.5" width="1.8" height="1.8" rx="0.2" fill="#B85A3A" opacity="0.7"/>
  <rect x="23.5" y="12.5" width="1.8" height="1.8" rx="0.2" fill="#8B3A1E" opacity="0.5"/>
  <rect x="21" y="15" width="1.8" height="1.8" rx="0.2" fill="#8B3A1E" opacity="0.6"/>
  <rect x="23.5" y="15" width="1.8" height="1.8" rx="0.2" fill="#B85A3A" opacity="0.8"/>
  <rect x="26.5" y="23" width="1.8" height="1.8" rx="0.2" fill="#8B3A1E" opacity="0.7"/>
  <rect x="29" y="23" width="1.8" height="1.8" rx="0.2" fill="#B85A3A" opacity="0.6"/>
  <rect x="29" y="25.5" width="1.8" height="1.8" rx="0.2" fill="#8B3A1E" opacity="0.8"/>
  <rect x="26.5" y="25.5" width="1.8" height="1.8" rx="0.2" fill="#B85A3A" opacity="0.5"/>
  <rect x="24" y="25.5" width="1.8" height="1.8" rx="0.2" fill="#8B3A1E" opacity="0.7"/>
  <rect x="24" y="23" width="1.8" height="1.8" rx="0.2" fill="#B85A3A" opacity="0.6"/>

  <!-- Stand base (angled acrylic foot) -->
  <path d="M14 38 L10 46 L38 46 L34 38 Z" fill="#8B3A1E" opacity="0.85"/>

  <!-- Base highlight -->
  <path d="M15.5 38 L12 45 L22 45 L20 38 Z" fill="white" opacity="0.08"/>

  <!-- Subtle bottom edge line -->
  <line x1="11" y1="46" x2="37" y2="46" stroke="#5C2510" stroke-width="0.8" stroke-linecap="round"/>
</svg>